<?xml version="1.0" standalone="no"?>
<!DOCTYPE svg PUBLIC "-//W3C//DTD SVG 20010904//EN"
 "http://www.w3.org/TR/2001/REC-SVG-20010904/DTD/svg10.dtd">
<svg version="1.0" xmlns="http://www.w3.org/2000/svg"
 width="946.000000pt" height="774.000000pt" viewBox="0 0 946.000000 774.000000"
 preserveAspectRatio="xMidYMid meet">

<g transform="translate(0.000000,774.000000) scale(0.100000,-0.100000)"
fill="#000000" stroke="none">
<path d="M550 7281 c-108 -16 -230 -102 -284 -200 -59 -109 -56 51 -56 -2826
0 -2848 -2 -2702 50 -2806 43 -83 131 -160 225 -195 48 -18 117 -19 1640 -24
l1590 -5 3 -460 c1 -253 0 -470 -3 -482 -5 -23 -6 -23 -258 -25 l-252 -3 -3
-33 c-7 -67 -130 -62 1517 -62 823 0 1502 4 1509 9 8 5 12 23 10 47 l-3 39
-252 3 c-252 2 -253 2 -258 25 -3 12 -4 229 -3 482 l3 460 1590 5 c1523 5
1592 6 1640 24 94 35 182 112 225 195 52 103 50 -41 50 2800 0 1891 -3 2653
-11 2700 -23 133 -109 244 -237 304 l-67 32 -4160 1 c-2288 1 -4180 -2 -4205
-5z m8377 -170 c23 -11 58 -36 77 -57 72 -76 67 131 64 -2414 l-3 -2295 -4345
0 -4345 0 -3 2290 c-2 2546 -8 2345 66 2420 20 21 55 46 77 56 39 18 177 19
4205 19 4067 0 4166 -1 4207 -19z m-4124 -5041 c57 -21 114 -73 142 -129 23
-46 23 -155 0 -201 -46 -93 -127 -144 -225 -143 -99 0 -179 51 -225 143 -28
55 -24 157 8 212 35 60 75 95 133 118 63 25 101 25 167 0z"/>
<path d="M1950 5391 c-143 -58 -221 -222 -191 -402 31 -188 140 -289 311 -289
122 0 221 57 266 154 34 72 32 81 -20 93 l-44 10 -17 -44 c-49 -128 -203 -171
-312 -87 -87 66 -116 248 -62 374 37 84 103 129 191 130 82 0 132 -30 169
-103 19 -36 22 -37 57 -31 53 9 58 18 37 64 -26 58 -87 116 -142 134 -64 22
-185 20 -243 -3z"/>
<path d="M2595 5394 c-44 -16 -90 -56 -111 -96 -18 -35 -18 -111 0 -146 32
-62 80 -89 226 -127 58 -15 117 -34 132 -41 59 -30 74 -90 36 -139 -30 -38
-76 -55 -151 -55 -103 0 -165 43 -191 133 -4 13 -16 17 -51 17 -51 0 -53 -5
-34 -75 7 -26 28 -57 59 -87 57 -55 121 -78 215 -78 159 0 266 83 265 207 -2
109 -65 164 -235 207 -137 34 -167 47 -184 79 -41 76 52 148 174 133 62 -7 94
-30 120 -84 18 -40 22 -42 62 -42 38 0 43 3 43 23 -1 66 -74 153 -149 176 -52
15 -177 13 -226 -5z"/>
<path d="M3259 5399 c-98 -15 -154 -69 -172 -166 -6 -32 -5 -33 28 -34 19 -1
40 -2 47 -3 7 -1 15 13 18 29 10 48 27 71 64 89 91 43 186 -11 186 -107 0 -46
-48 -115 -128 -185 -173 -150 -232 -222 -232 -284 l0 -28 231 0 230 0 -3 43
-3 42 -165 5 -165 5 64 60 c246 228 261 249 261 349 0 63 -14 98 -57 137 -48
44 -121 61 -204 48z"/>
<path d="M3813 5399 c-88 -16 -136 -60 -174 -156 -19 -50 -23 -77 -23 -193 -1
-159 11 -211 62 -271 77 -90 209 -105 305 -35 46 34 81 119 81 195 -1 183
-178 283 -321 182 l-46 -33 6 53 c13 106 79 189 152 189 40 0 83 -33 102 -78
12 -28 18 -33 36 -28 12 3 30 6 40 6 24 0 22 36 -6 85 -38 67 -124 101 -214
84z m117 -354 c34 -33 51 -97 40 -154 -21 -113 -144 -154 -214 -70 -54 64 -58
151 -9 210 34 40 58 50 111 45 30 -3 52 -12 72 -31z"/>
<path d="M4330 5400 c-126 -23 -180 -126 -181 -339 0 -180 26 -262 103 -324
29 -23 49 -30 101 -34 85 -7 143 19 186 83 43 66 56 131 55 279 -1 142 -20
215 -70 274 -41 50 -121 75 -194 61z m101 -93 c53 -36 71 -97 71 -247 1 -146
-11 -199 -55 -247 -58 -62 -138 -44 -182 43 -29 56 -30 314 -1 387 31 82 101
109 167 64z"/>
<path d="M5795 5398 c-2 -7 -45 -159 -95 -338 -50 -179 -93 -333 -96 -342 -4
-15 1 -18 33 -18 l38 0 95 342 c52 187 96 347 98 354 4 18 -67 19 -73 2z"/>
<path d="M4913 5198 c4 -11 130 -425 143 -470 4 -14 16 -18 53 -18 l48 0 38
148 c21 81 43 163 48 182 9 33 11 29 47 -105 21 -77 43 -159 49 -183 l12 -43
47 3 46 3 77 245 76 245 -40 3 c-23 2 -43 -2 -47 -8 -4 -6 -29 -85 -55 -176
-26 -90 -51 -164 -55 -164 -3 0 -26 79 -51 175 l-44 175 -47 0 -47 0 -15 -52
c-8 -29 -29 -107 -46 -173 -18 -66 -35 -125 -39 -132 -3 -7 -29 71 -56 172
l-50 185 -49 0 c-34 0 -47 -4 -43 -12z"/>
<path d="M3110 3855 l0 -345 215 0 215 0 0 45 0 45 -170 0 -170 0 0 300 0 300
-45 0 -45 0 0 -345z"/>
<path d="M5220 3924 l0 -276 -29 -29 c-22 -21 -39 -29 -66 -29 -54 0 -81 23
-95 81 -12 50 -17 53 -67 43 l-29 -6 7 -56 c13 -94 62 -141 157 -149 113 -10
188 39 211 137 6 25 11 161 11 303 l0 257 -50 0 -50 0 0 -276z"/>
<path d="M3729 3997 c-60 -31 -105 -100 -115 -173 -17 -142 18 -241 104 -291
41 -24 58 -28 127 -28 62 0 89 5 120 21 40 21 88 79 100 120 5 20 1 22 -40 26
-43 3 -47 1 -65 -29 -26 -45 -61 -65 -116 -65 -58 0 -91 23 -121 82 -43 83
-48 80 162 80 l185 0 0 48 c-1 93 -52 180 -124 213 -60 27 -160 26 -217 -4z
m172 -62 c34 -18 69 -69 69 -102 0 -23 -2 -23 -130 -23 -126 0 -130 1 -130 21
0 33 37 85 73 103 41 20 80 20 118 1z"/>
<path d="M4273 4003 c-49 -27 -80 -58 -105 -105 -18 -36 -22 -59 -23 -138 0
-108 17 -153 79 -208 78 -68 229 -71 306 -5 29 24 70 90 70 113 0 5 -21 10
-47 10 -42 0 -50 -4 -65 -29 -35 -63 -115 -82 -179 -45 -33 20 -65 71 -71 114
l-3 25 183 3 182 2 0 47 c0 97 -48 179 -124 214 -54 25 -160 25 -203 2z m184
-84 c29 -28 38 -43 47 -81 l6 -28 -135 0 c-151 0 -155 2 -115 68 45 73 141 93
197 41z"/>
<path d="M5555 4001 c-49 -22 -98 -76 -116 -128 -19 -56 -17 -179 4 -234 42
-110 169 -165 300 -128 62 17 137 95 137 144 0 11 -11 15 -44 15 -38 0 -46 -4
-67 -35 -40 -59 -117 -75 -178 -39 -33 20 -71 85 -71 122 0 22 1 22 186 22
l185 0 -6 58 c-4 31 -15 75 -24 97 -19 43 -77 100 -118 116 -41 15 -144 10
-188 -10z m162 -68 c24 -11 42 -30 54 -57 31 -68 34 -66 -117 -66 l-136 0 7
28 c10 40 32 70 68 92 39 24 78 25 124 3z"/>
<path d="M6135 4007 c-17 -8 -36 -21 -44 -30 -19 -24 -31 -21 -31 8 0 23 -4
25 -40 25 l-40 0 0 -250 0 -250 45 0 45 0 0 148 c0 81 4 164 9 185 18 74 85
115 156 96 58 -16 65 -42 65 -249 l0 -180 45 0 45 0 0 198 c0 217 -6 244 -63
286 -35 26 -147 33 -192 13z"/>
<path d="M6580 4002 c-67 -33 -99 -119 -67 -181 20 -39 59 -61 163 -92 112
-33 140 -54 130 -93 -9 -37 -48 -58 -106 -58 -61 0 -96 21 -116 69 -11 24 -20
33 -30 29 -9 -3 -27 -6 -40 -6 -31 0 -32 -31 -1 -84 33 -58 84 -81 182 -81
133 0 205 55 205 157 0 73 -38 108 -156 143 -131 38 -154 50 -154 79 0 80 176
89 196 10 6 -24 10 -26 46 -21 49 7 52 10 44 41 -10 39 -54 85 -94 96 -59 16
-162 12 -202 -8z"/>
<path d="M7110 4009 c-44 -18 -90 -59 -113 -102 -19 -36 -22 -57 -22 -148 0
-100 2 -108 30 -154 22 -36 45 -57 85 -78 48 -25 63 -28 120 -24 107 7 181 58
212 144 7 21 13 76 12 123 0 122 -38 189 -129 231 -44 20 -152 25 -195 8z
m169 -87 c47 -34 64 -78 64 -156 0 -109 -32 -163 -112 -186 -66 -19 -136 26
-161 104 -17 54 -8 156 19 199 41 66 130 84 190 39z"/>
<path d="M7670 3999 c-19 -12 -36 -25 -38 -30 -7 -19 -22 -8 -22 16 0 23 -4
25 -40 25 l-40 0 0 -250 0 -250 45 0 45 0 0 160 c0 184 11 230 63 257 49 25
104 21 135 -11 l27 -26 3 -190 3 -190 45 0 44 0 0 198 c0 217 -6 244 -63 286
-43 32 -160 35 -207 5z"/>
</g>
</svg>
